<?xml version="1.0" encoding="UTF-8" standalone="no"?>
<!-- Created with Inkscape (http://www.inkscape.org/) -->

<svg
   width="420mm"
   height="297mm"
   viewBox="0 0 420 297"
   version="1.1"
   id="svg1"
   sodipodi:docname="harmony-42-case-topview.svg"
   inkscape:version="1.3.2 (091e20e, 2023-11-25)"
   xmlns:inkscape="http://www.inkscape.org/namespaces/inkscape"
   xmlns:sodipodi="http://sodipodi.sourceforge.net/DTD/sodipodi-0.dtd"
   xmlns="http://www.w3.org/2000/svg"
   xmlns:svg="http://www.w3.org/2000/svg">
  <sodipodi:namedview
     id="namedview1"
     pagecolor="#ffffff"
     bordercolor="#000000"
     borderopacity="0.25"
     inkscape:showpageshadow="2"
     inkscape:pageopacity="0.0"
     inkscape:pagecheckerboard="0"
     inkscape:deskcolor="#d1d1d1"
     inkscape:document-units="mm"
     showguides="false"
     showgrid="false"
     inkscape:zoom="0.5683932"
     inkscape:cx="402.89011"
     inkscape:cy="360.66582"
     inkscape:window-width="1664"
     inkscape:window-height="1027"
     inkscape:window-x="388"
     inkscape:window-y="346"
     inkscape:window-maximized="0"
     inkscape:current-layer="layer1">
    <inkscape:grid
       id="grid1"
       units="mm"
       originx="0"
       originy="0"
       spacingx="0.99999998"
       spacingy="1"
       empcolor="#0099e5"
       empopacity="0.30196078"
       color="#0099e5"
       opacity="0.14901961"
       empspacing="5"
       dotted="false"
       gridanglex="30"
       gridanglez="30"
       visible="false" />
  </sodipodi:namedview>
  <defs
     id="defs1" />
  <g
     inkscape:label="Layer 1"
     inkscape:groupmode="layer"
     id="layer1">
    <path
       style="fill:none;fill-opacity:0.5;stroke:#000000;stroke-width:0.1;stroke-dasharray:none;stroke-opacity:1"
       d="m 28.575,42.862 -0.0838,57.1505 19.1338,5e-4 v -9.5255 h 19.05 l 0.67,-4.666252 18.187,2.611463 5.953,2.056345 -6.023,17.439164 18.007,6.2193 16.728,9.11353 14.989,11.75698 11.757,-14.98927 h 29.96389 l 11.75711,14.98927 14.989,-11.75697 16.728,-9.11354 18.007,-6.2193 -6.024,-17.43922 5.954,-2.056418 18.187,-2.611582 0.67,4.6665 19.05,2.22e-4 v 9.524998 l 19.05,-2.2e-4 v -57.15 l -19.05,0 v -9.525 h -19.05 L 255.065,28.692181 235.08,30.919682 214.434,35.58 194.43,42.498434 176.27,51.136041 147.58,51.13604 129.418,42.497713 109.415,35.579454 88.768,30.919316 68.785,28.692328 66.675,33.337 h -19.05 v 9.5255 z"
       id="path1"
       sodipodi:nodetypes="ccccccccccccccccccccccccccccccccccccccccccc" />
    <rect
       style="fill:none;fill-opacity:0.5;stroke:#000000;stroke-width:0.1"
       id="rect1"
       width="14"
       height="14"
       x="31.1"
       y="45.387501"
       rx="0.30000001"
       ry="0.30000001" />
    <rect
       style="fill:none;fill-opacity:0.5;stroke:#000000;stroke-width:0.1"
       id="rect2"
       width="14"
       height="14"
       x="50.150002"
       y="35.862499"
       rx="0.30000001"
       ry="0.30000001" />
    <rect
       style="fill:none;fill-opacity:0.5;stroke:#000000;stroke-width:0.1"
       id="rect3"
       width="14"
       height="14"
       x="74.065262"
       y="23.420902"
       rx="0.30000001"
       ry="0.30000001"
       transform="rotate(6.36)" />
    <rect
       style="fill:none;fill-opacity:0.5;stroke:#000000;stroke-width:0.1"
       id="rect4"
       width="14"
       height="14"
       x="96.982239"
       y="13.141009"
       rx="0.30000001"
       ry="0.30000001"
       transform="rotate(12.71932)" />
    <rect
       style="fill:none;fill-opacity:0.5;stroke:#000000;stroke-width:0.1"
       id="rect5"
       width="14"
       height="14"
       x="118.6204"
       y="0.3849712"
       rx="0.30000001"
       ry="0.30000001"
       transform="rotate(19.078981)" />
    <rect
       style="fill:none;fill-opacity:0.5;stroke:#000000;stroke-width:0.1"
       id="rect6"
       width="14"
       height="14"
       x="138.71169"
       y="-14.688791"
       rx="0.30000001"
       ry="0.30000001"
       transform="rotate(25.438641)" />
  </g>
</svg>
