<?xml version="1.0" encoding="UTF-8" standalone="no"?>
<!-- Created with Inkscape (http://www.inkscape.org/) -->

<svg
   width="420mm"
   height="297mm"
   viewBox="0 0 420 297"
   version="1.1"
   id="svg1"
   sodipodi:docname="harmony-42-case-topview.svg"
   inkscape:version="1.3.2 (091e20e, 2023-11-25)"
   xmlns:inkscape="http://www.inkscape.org/namespaces/inkscape"
   xmlns:sodipodi="http://sodipodi.sourceforge.net/DTD/sodipodi-0.dtd"
   xmlns="http://www.w3.org/2000/svg"
   xmlns:svg="http://www.w3.org/2000/svg">
  <sodipodi:namedview
     id="namedview1"
     pagecolor="#ffffff"
     bordercolor="#000000"
     borderopacity="0.25"
     inkscape:showpageshadow="2"
     inkscape:pageopacity="0.0"
     inkscape:pagecheckerboard="0"
     inkscape:deskcolor="#d1d1d1"
     inkscape:document-units="mm"
     showguides="true"
     showgrid="false"
     inkscape:zoom="4.0000001"
     inkscape:cx="156.875"
     inkscape:cy="178.5"
     inkscape:window-width="1632"
     inkscape:window-height="1027"
     inkscape:window-x="72"
     inkscape:window-y="25"
     inkscape:window-maximized="0"
     inkscape:current-layer="layer5">
    <inkscape:grid
       id="grid1"
       units="mm"
       originx="0"
       originy="0"
       spacingx="0.99999998"
       spacingy="1"
       empcolor="#0099e5"
       empopacity="0.30196078"
       color="#0099e5"
       opacity="0.14901961"
       empspacing="5"
       dotted="false"
       gridanglex="30"
       gridanglez="30"
       visible="false" />
  </sodipodi:namedview>
  <defs
     id="defs1">
    <inkscape:path-effect
       effect="fillet_chamfer"
       id="path-effect5"
       is_visible="true"
       lpeversion="1"
       nodesatellites_param="F,0,0,1,0,1,0,1 @ F,0,0,1,0,1,0,1 @ F,0,0,1,0,1,0,1 @ F,0,0,1,0,1,0,1 @ F,0,0,1,0,1,0,1 @ F,0,0,1,0,1,0,1 @ F,0,0,1,0,1,0,1 @ F,0,0,1,0,1,0,1 @ F,0,0,1,0,1,0,1 @ F,0,0,1,0,1,0,1 @ F,0,0,1,0,1,0,1 @ F,0,0,1,0,1,0,1 @ F,0,0,1,0,1,0,1 @ F,0,0,1,0,1,0,1 @ F,0,0,1,0,1,0,1 @ F,0,0,1,0,1,0,1 @ F,0,0,1,0,1,0,1 @ F,0,0,1,0,1,0,1 @ F,0,0,1,0,1,0,1 @ F,0,0,1,0,1,0,1 @ F,0,0,1,0,1,0,1 @ F,0,0,1,0,1,0,1 @ F,0,0,1,0,1,0,1 @ F,0,0,1,0,1,0,1 @ F,0,0,1,0,1,0,1 @ F,0,0,1,0,1,0,1 @ F,0,0,1,0,1,0,1 @ F,0,0,1,0,1,0,1 @ F,0,0,1,0,1,0,1 @ F,0,0,1,0,1,0,1 @ F,0,0,1,0,1,0,1 @ F,0,0,1,0,1,0,1 @ F,0,0,1,0,1,0,1 @ F,0,0,1,0,1,0,1 @ F,0,0,1,0,1,0,1 @ F,0,0,1,0,1,0,1 @ F,0,0,1,0,1,0,1 @ F,0,0,1,0,1,0,1 @ F,0,0,1,0,1,0,1 @ F,0,0,1,0,1,0,1 @ F,0,0,1,0,1,0,1 @ F,0,0,1,0,1,0,1"
       radius="1"
       unit="mm"
       method="auto"
       mode="F"
       chamfer_steps="1"
       flexible="false"
       use_knot_distance="true"
       apply_no_radius="true"
       apply_with_radius="true"
       only_selected="false"
       hide_knots="false" />
    <inkscape:path-effect
       effect="fillet_chamfer"
       id="path-effect4"
       is_visible="true"
       lpeversion="1"
       nodesatellites_param="F,0,0,1,0,1,0,1 @ F,0,0,1,0,1,0,1 @ F,0,0,1,0,1,0,1 @ F,0,0,1,0,1,0,1 @ F,0,0,1,0,1,0,1 @ F,0,0,1,0,1,0,1 @ F,0,0,1,0,1,0,1 @ F,0,0,1,0,1,0,1 @ F,0,0,1,0,1,0,1 @ F,0,0,1,0,1,0,1 @ F,0,0,1,0,1,0,1 @ F,0,0,1,0,1,0,1 @ F,0,0,1,0,1,0,1 @ F,0,0,1,0,1,0,1 @ F,0,0,1,0,1,0,1 @ F,0,0,1,0,1,0,1 @ F,0,0,1,0,1,0,1 @ F,0,0,1,0,1,0,1 @ F,0,0,1,0,1,0,1 @ F,0,0,1,0,1,0,1 @ F,0,0,1,0,1,0,1 @ F,0,0,1,0,1,0,1 @ F,0,0,1,0,1,0,1 @ F,0,0,1,0,1,0,1 @ F,0,0,1,0,1,0,1 @ F,0,0,1,0,1,0,1 @ F,0,0,1,0,1,0,1 @ F,0,0,1,0,1,0,1 @ F,0,0,1,0,1,0,1 @ F,0,0,1,0,1,0,1 @ F,0,0,1,0,1,0,1 @ F,0,0,1,0,1,0,1 @ F,0,0,1,0,1,0,1 @ F,0,0,1,0,1,0,1 @ F,0,0,1,0,1,0,1 @ F,0,0,1,0,1,0,1 @ F,0,0,1,0,1,0,1 @ F,0,0,1,0,1,0,1 @ F,0,0,1,0,1,0,1 @ F,0,0,1,0,1,0,1 @ F,0,0,1,0,1,0,1 @ F,0,0,1,0,1,0,1"
       radius="1"
       unit="mm"
       method="auto"
       mode="F"
       chamfer_steps="1"
       flexible="false"
       use_knot_distance="true"
       apply_no_radius="true"
       apply_with_radius="true"
       only_selected="false"
       hide_knots="false" />
    <inkscape:path-effect
       effect="fillet_chamfer"
       id="path-effect3"
       is_visible="true"
       lpeversion="1"
       nodesatellites_param="F,0,0,1,0,1,0,1 @ F,0,0,1,0,1,0,1 @ F,0,0,1,0,1,0,1 @ F,0,0,1,0,1,0,1 @ F,0,0,1,0,1,0,1 @ F,0,0,1,0,1,0,1 @ F,0,0,1,0,1,0,1 @ F,0,0,1,0,1,0,1 @ F,0,0,1,0,1,0,1 @ F,0,0,1,0,1,0,1 @ F,0,0,1,0,1,0,1 @ F,0,0,1,0,1,0,1 @ F,0,0,1,0,1,0,1 @ F,0,0,1,0,1,0,1 @ F,0,0,1,0,1,0,1 @ F,0,0,1,0,1,0,1 @ F,0,0,1,0,1,0,1 @ F,0,0,1,0,1,0,1 @ F,0,0,1,0,1,0,1 @ F,0,0,1,0,1,0,1 @ F,0,0,1,0,1,0,1 @ F,0,0,1,0,1,0,1 @ F,0,0,1,0,1,0,1 @ F,0,0,1,0,1,0,1 @ F,0,0,1,0,1,0,1 @ F,0,0,1,0,1,0,1"
       radius="1"
       unit="mm"
       method="auto"
       mode="F"
       chamfer_steps="1"
       flexible="false"
       use_knot_distance="true"
       apply_no_radius="true"
       apply_with_radius="true"
       only_selected="false"
       hide_knots="false" />
    <inkscape:path-effect
       effect="fillet_chamfer"
       id="path-effect2"
       is_visible="true"
       lpeversion="1"
       nodesatellites_param="F,0,0,1,0,1,0,1 @ F,0,0,1,0,1,0,1 @ F,0,0,1,0,1,0,1 @ F,0,0,1,0,1,0,1 @ F,0,0,1,0,1,0,1 @ F,0,0,1,0,1,0,1 @ F,0,0,1,0,1,0,1 @ F,0,0,1,0,1,0,1 @ F,0,0,1,0,1,0,1 @ F,0,0,1,0,1,0,1 @ F,0,0,1,0,1,0,1 @ F,0,0,1,0,1,0,1 @ F,0,0,1,0,1,0,1 @ F,0,0,1,0,1,0,1 @ F,0,0,1,0,1,0,1 @ F,0,0,1,0,1,0,1 @ F,0,0,1,0,1,0,1 @ F,0,0,1,0,1,0,1 @ F,0,0,1,0,1,0,1 @ F,0,0,1,0,1,0,1 @ F,0,0,1,0,1,0,1 @ F,0,0,1,0,1,0,1 @ F,0,0,1,0,1,0,1 @ F,0,0,1,0,1,0,1 @ F,0,0,1,0,1,0,1 @ F,0,0,1,0,1,0,1"
       radius="1"
       unit="mm"
       method="auto"
       mode="F"
       chamfer_steps="1"
       flexible="false"
       use_knot_distance="true"
       apply_no_radius="true"
       apply_with_radius="true"
       only_selected="false"
       hide_knots="false" />
    <inkscape:path-effect
       effect="fillet_chamfer"
       id="path-effect1"
       is_visible="true"
       lpeversion="1"
       nodesatellites_param="F,0,0,1,0,1,0,1 @ F,0,0,1,0,1,0,1 @ F,0,0,1,0,1,0,1 @ F,0,0,1,0,1,0,1 @ F,0,0,1,0,1,0,1 @ F,0,0,1,0,1,0,1 @ F,0,0,1,0,1,0,1 @ F,0,0,1,0,1,0,1 @ F,0,0,1,0,1,0,1 @ F,0,0,1,0,1,0,1 @ F,0,0,1,0,1,0,1 @ F,0,0,1,0,1,0,1 @ F,0,0,1,0,1,0,1 @ F,0,0,1,0,1,0,1 @ F,0,0,1,0,1,0,1 @ F,0,0,1,0,1,0,1 @ F,0,0,1,0,1,0,1 @ F,0,0,1,0,1,0,1 @ F,0,0,1,0,1,0,1 @ F,0,0,1,0,1,0,1 @ F,0,0,1,0,1,0,1 @ F,0,0,1,0,1,0,1 @ F,0,0,1,0,1,0,1 @ F,0,0,1,0,1,0,1 @ F,0,0,1,0,1,0,1 @ F,0,0,1,0,1,0,1 @ F,0,0,1,0,1,0,1 @ F,0,0,1,0,1,0,1 @ F,0,0,1,0,1,0,1 @ F,0,0,1,0,1,0,1 @ F,0,0,1,0,1,0,1 @ F,0,0,1,0,1,0,1 @ F,0,0,1,0,1,0,1 @ F,0,0,1,0,1,0,1 @ F,0,0,1,0,1,0,1 @ F,0,0,1,0,1,0,1 @ F,0,0,1,0,1,0,1 @ F,0,0,1,0,1,0,1 @ F,0,0,1,0,1,0,1 @ F,0,0,1,0,1,0,1 @ F,0,0,1,0,1,0,1 @ F,0,0,1,0,1,0,1"
       radius="1"
       unit="mm"
       method="auto"
       mode="F"
       chamfer_steps="1"
       flexible="false"
       use_knot_distance="true"
       apply_no_radius="true"
       apply_with_radius="true"
       only_selected="false"
       hide_knots="false" />
  </defs>
  <g
     inkscape:label="Grid"
     inkscape:groupmode="layer"
     id="layer1"
     style="display:none"
     inkscape:highlight-color="#00ffff">
    <path
       style="fill:none;fill-opacity:0.5;stroke:#00ffff;stroke-width:0.1;stroke-opacity:1"
       d="M 134.887,55.646287 57.14993,219.07562"
       id="path6"
       sodipodi:nodetypes="cc" />
    <path
       style="fill:none;fill-opacity:0.5;stroke:#00ffff;stroke-width:0.1;stroke-opacity:1"
       d="M 77.196465,39.213692 57.14993,219.07562"
       id="path7" />
    <path
       style="fill:none;fill-opacity:0.5;stroke:#00ffff;stroke-width:0.1;stroke-opacity:1"
       id="path8"
       sodipodi:type="arc"
       sodipodi:cx="57.149929"
       sodipodi:cy="219.07562"
       sodipodi:rx="196.5"
       sodipodi:ry="196.5"
       sodipodi:start="4.712389"
       sodipodi:end="5.2359878"
       sodipodi:arc-type="slice"
       d="M 57.149929,22.575623 A 196.5,196.5 0 0 1 155.39994,48.901635 L 57.149929,219.07562 Z" />
    <path
       style="fill:none;fill-opacity:0.5;stroke:#00ffff;stroke-width:0.1;stroke-opacity:1"
       d="M 188.963,55.646284 266.70007,219.07562"
       id="path9"
       sodipodi:nodetypes="cc"
       inkscape:label="path9" />
    <path
       style="fill:none;fill-opacity:0.5;stroke:#00ffff;stroke-width:0.1;stroke-opacity:1"
       d="M 246.65354,39.213689 266.70007,219.07562"
       id="path10" />
    <path
       style="fill:none;fill-opacity:0.5;stroke:#00ffff;stroke-width:0.1;stroke-opacity:1"
       id="circle10"
       sodipodi:type="arc"
       sodipodi:cx="266.70007"
       sodipodi:cy="219.07562"
       sodipodi:rx="196.5"
       sodipodi:ry="196.5"
       sodipodi:start="4.1887902"
       sodipodi:end="4.712389"
       sodipodi:arc-type="slice"
       d="m 168.45007,48.901631 a 196.5,196.5 0 0 1 98.25,-26.326008 V 219.07562 Z" />
    <path
       style="fill:none;fill-opacity:0.5;stroke:#00ffff;stroke-width:0.1;stroke-opacity:1"
       id="circle11"
       sodipodi:type="arc"
       sodipodi:cx="57.149929"
       sodipodi:cy="219.07562"
       sodipodi:rx="108.3"
       sodipodi:ry="108.3"
       sodipodi:start="4.712389"
       sodipodi:end="5.5850536"
       sodipodi:arc-type="slice"
       d="m 57.149929,110.77562 a 108.3,108.3 0 0 1 82.962611,38.6861 l -82.962611,69.6139 z" />
    <path
       style="fill:none;fill-opacity:0.5;stroke:#00ffff;stroke-width:0.1;stroke-opacity:1"
       id="circle12"
       sodipodi:type="arc"
       sodipodi:cx="266.70007"
       sodipodi:cy="219.07562"
       sodipodi:rx="108.3"
       sodipodi:ry="108.3"
       sodipodi:start="3.8397244"
       sodipodi:end="4.712389"
       sodipodi:arc-type="slice"
       d="m 183.73746,149.46172 a 108.3,108.3 0 0 1 82.96261,-38.6861 v 108.3 z" />
  </g>
  <g
     inkscape:groupmode="layer"
     id="layer3"
     inkscape:label="PCB">
    <path
       style="display:inline;fill:none;fill-opacity:0.5;stroke:#008000;stroke-width:0.1;stroke-dasharray:none;stroke-opacity:1"
       d="m 28.575,42.862 -0.084,57.1505 19.134,5e-4 v -9.525 l 19.05,-5e-4 0.67,-4.666252 18.187,2.611463 5.953,2.056345 -6.023,17.439164 18.007,6.2193 16.728,9.11353 14.989,11.75698 11.757,-14.98927 h 29.96389 l 11.75711,14.98927 14.989,-11.75697 16.728,-9.11354 18.007,-6.2193 -6.024,-17.43922 5.954,-2.056418 18.187,-2.611582 0.67,4.6665 19.05,2.22e-4 v 9.524998 l 19.05,-2.2e-4 v -57.15 h -19.05 v -9.525 h -19.05 L 255.065,28.692181 235.08,30.919682 214.434,35.58 194.43,42.498434 176.27,51.136041 V 89.236 H 147.58 V 51.13604 L 129.418,42.497713 109.415,35.579454 88.768,30.919316 68.785,28.692328 66.675,33.337 h -19.05 v 9.5255 z"
       id="path1"
       sodipodi:nodetypes="ccccccccccccccccccccccccccccccccccccccccccccc" />
    <rect
       style="fill:none;stroke:#008000;stroke-width:0.1;stroke-opacity:1"
       id="rect43"
       width="24"
       height="36"
       x="149.925"
       y="53.236004" />
  </g>
  <g
     inkscape:groupmode="layer"
     id="layer2"
     inkscape:label="Base"
     style="display:inline"
     inkscape:highlight-color="#0000ff">
    <path
       style="fill:none;fill-opacity:1;stroke:#00ffff;stroke-width:0.1;stroke-opacity:1"
       d="m 148.93083,45.136 -7.85637,-3.736905 C 114.89347,29.032559 86.237735,22.575652 57.149929,22.575811 L 22.491,22.576 v 88.099 l 34.658929,0.10049 c 24.234968,1.3e-4 47.769681,8.12887 66.838631,23.08577 l 12.21551,9.5807 51.44185,-3.7e-4 12.21551,-9.5807 c 19.06895,-14.9569 42.60366,-23.08564 66.83863,-23.08577 l 34.65893,-0.10049 V 22.575623 l -34.65893,-1.89e-4 c -29.0878,-1.59e-4 -57.74354,6.456748 -83.92453,18.823284 l -7.85534,3.737095 z"
       id="path21"
       sodipodi:nodetypes="ccsccccccccccsccc"
       inkscape:label="path21" />
    <path
       style="fill:none;stroke:#0000ff;stroke-width:0.1;stroke-opacity:1"
       d="m 148.00945,50.233155 -17.30909,-8.232849 a 18.001882,18.001882 22.258014 0 0 -1.84812,-0.75639 L 110.63443,34.943085 A 17.999968,17.999968 15.89868 0 0 108.7139,34.396054 L 89.909501,30.151801 a 18.000606,18.000606 9.5391206 0 0 -1.969309,-0.330932 l -19.04426,-2.122491 a 1.0000045,1.0000045 141.35952 0 0 -1.104616,0.883081 l -0.307805,2.761697 a 1.1176468,1.1176468 138.17983 0 1 -1.110769,0.993846 L 47.625,32.337 a 0.9999999,0.9999999 135 0 0 -1,1 v 7.526 a 0.99994751,0.99994751 135.0015 0 1 -1,0.999948 l -17.05,-8.96e-4 a 1.0013685,1.0013685 135.04219 0 0 -1.00142,0.999947 L 27.49242,100.013 a 0.99858091,0.99858091 45.040683 0 0 0.99858,1 h 19.134 a 1,1 135 0 0 1,-1 v -7.525 a 1.0000005,1.0000005 134.99999 0 1 1,-1 l 17.050003,-9e-6 a 0.9999996,0.9999996 134.99996 0 0 0.999999,-1 l -2e-6,-2.609135 a 0.86666987,0.86666987 139.08546 0 1 0.989847,-0.857873 l 15.640333,2.24572 a 14.055949,14.055949 12.240383 0 1 1.949605,0.422958 l 3.080845,0.901473 a 0.95319629,0.95319629 62.682487 0 1 0.633278,1.226036 l -5.452085,15.78461 a 0.99997941,0.99997941 64.054591 0 0 0.618732,1.27166 l 16.983105,5.86566 a 11.999242,11.999242 23.817943 0 1 1.82334,0.80487 l 14.82519,8.07688 a 11.999314,11.999314 33.345797 0 1 1.66496,1.09558 l 14.13668,11.08844 a 0.99998975,0.99998975 173.10942 0 0 1.40399,-0.16967 l 11.75699,-14.98932 a 0.99999994,0.99999994 83.109121 0 0 -0.16968,-1.404 l -8.42684,-6.60966 a 1.0994516,1.0994516 80.397031 0 1 -0.24682,-1.45881 l 9.42061,-14.6826 a 1.0000001,1.0000001 77.684944 0 0 -0.30163,-1.381672 l -7.49024,-4.805867 a 1.0737632,1.0737632 75.647809 0 1 -0.36279,-1.417913 l 8.3375,-15.285299 a 0.99999949,0.99999949 73.610656 0 0 -0.39903,-1.356749 l -6.62018,-3.61103 a 1.0569527,1.0569527 72.024647 0 1 -0.44835,-1.381901 l 7.4606,-15.684652 a 0.99998012,0.99998012 70.438082 0 0 -0.47351,-1.332572 z"
       id="path58"
       sodipodi:nodetypes="ccccccccccccccccccccccccccc"
       inkscape:label="path58"
       inkscape:path-effect="#path-effect2"
       inkscape:original-d="M 148.9125,50.662681 129.79731,41.57078 109.68936,34.616221 88.934039,29.931634 67.902085,27.587613 67.372742,32.337002 46.625,32.337 v 9.526 l -19.05,-10e-4 -0.084,59.151 h 21.134 v -9.525 l 19.050003,-9e-6 -4e-6,-4.609135 17.620029,2.529974 5.000359,1.463135 -6.105043,17.675015 18.873526,6.51858 16.58145,9.0337 15.71034,12.32278 12.99131,-16.563 -10.00052,-7.84398 10.50065,-16.365903 -9.17354,-5.885905 9.29522,-17.041087 -8.37596,-4.56874 z" />
    <path
       style="fill:none;stroke:#0000ff;stroke-width:0.1;stroke-opacity:1"
       d="m 175.84033,50.233542 17.30909,-8.232849 a 18.001882,18.001882 157.74199 0 1 1.84812,-0.75639 l 18.21781,-6.300831 a 17.999969,17.999969 164.10132 0 1 1.92053,-0.547031 l 18.8044,-4.244253 a 18.000608,18.000608 170.46088 0 1 1.96931,-0.330932 l 19.04425,-2.122491 a 1.0000059,1.0000059 38.640433 0 1 1.10462,0.883081 l 0.30781,2.761697 a 1.1176484,1.1176484 41.820129 0 0 1.11077,0.993846 l 18.74774,-2e-6 a 0.9999999,0.9999999 44.999997 0 1 1,1 v 7.526 a 0.99994751,0.99994751 44.998496 0 0 1,0.999948 l 17.05,-8.96e-4 a 1.0013685,1.0013685 44.957813 0 1 1.00142,0.999947 l 0.0812,57.151004 a 0.99858091,0.99858091 134.95932 0 1 -0.99858,1 h -19.134 a 1,1 45 0 1 -1,-1 v -7.525003 a 1.0000005,1.0000005 45.000014 0 0 -1,-1 l -17.05,-9e-6 a 1.0000005,1.0000005 45.000014 0 1 -1,-1 v -2.609135 a 0.86667064,0.86667064 40.914513 0 0 -0.98985,-0.857873 l -15.64033,2.24572 a 14.055953,14.055953 167.75962 0 0 -1.94961,0.422958 l -3.08084,0.901473 a 0.95319595,0.95319595 117.31751 0 0 -0.63328,1.226035 l 5.45209,15.784614 a 0.99997904,0.99997904 115.9454 0 1 -0.61873,1.27166 l -16.98311,5.86566 a 11.999237,11.999237 156.18206 0 0 -1.82334,0.80487 l -14.82519,8.07688 a 11.999314,11.999314 146.6542 0 0 -1.66496,1.09558 l -14.13668,11.08844 a 0.99998975,0.99998975 6.8905837 0 1 -1.40399,-0.16967 l -11.75699,-14.98932 a 0.99999994,0.99999994 96.890879 0 1 0.16968,-1.404 l 8.42684,-6.60966 a 1.0994517,1.0994517 99.602972 0 0 0.24682,-1.45881 L 175.5427,96.491197 a 1.0000002,1.0000002 102.31506 0 1 0.30163,-1.381672 l 7.49024,-4.805867 a 1.0737632,1.0737632 104.35219 0 0 0.36279,-1.417913 l -8.3375,-15.285299 a 0.99999949,0.99999949 106.38934 0 1 0.39903,-1.356749 l 6.62018,-3.61103 a 1.0569527,1.0569527 107.97535 0 0 0.44835,-1.381901 l -7.4606,-15.684652 a 0.99998012,0.99998012 109.56192 0 1 0.47351,-1.332572 z"
       id="path48"
       sodipodi:nodetypes="ccccccccccccccccccccccccccc"
       inkscape:path-effect="#path-effect3"
       inkscape:original-d="m 174.93728,50.663068 19.11519,-9.091901 20.10795,-6.954559 20.75532,-4.684587 21.03195,-2.344021 0.52935,4.749389 20.74774,-2e-6 v 9.526 l 19.05,-0.001 0.084,59.151003 h -21.134 v -9.525003 l -19.05,-9e-6 v -4.609135 l -17.62003,2.529974 -5.00036,1.463135 6.10505,17.675018 -18.87353,6.51858 -16.58145,9.0337 -15.71034,12.32278 -12.99131,-16.563 10.00052,-7.84398 -10.50065,-16.365906 9.17354,-5.885905 -9.29522,-17.041087 8.37596,-4.56874 z" />
    <path
       style="fill:none;fill-opacity:1;stroke:#0000ff;stroke-width:0.1;stroke-opacity:1"
       d="M 141.07446,41.399095 C 114.89347,29.032559 86.237735,22.575652 57.149929,22.575811 L 22.491,22.576 v 88.099 l 34.658929,0.10049 c 24.234968,1.3e-4 47.769681,8.12887 66.838631,23.08577 l 12.21551,9.5807 51.44185,-3.7e-4 12.21551,-9.5807 c 19.06895,-14.9569 42.60366,-23.08564 66.83863,-23.08577 l 34.65893,-0.10049 V 22.575623 l -34.65893,-1.89e-4 c -29.0878,-1.59e-4 -57.74354,6.456748 -83.92453,18.823284 z"
       id="path57"
       sodipodi:nodetypes="csccccccccccscc"
       inkscape:label="path21" />
  </g>
  <g
     inkscape:groupmode="layer"
     id="layer4"
     inkscape:label="Step"
     style="display:inline"
     inkscape:highlight-color="#ff0000">
    <path
       style="fill:none;stroke:#ff0000;stroke-width:0.1"
       d="m 173.3984,50.285718 19.36907,-9.213129 a 18,18 157.74119 0 1 1.84812,-0.756415 l 18.31913,-6.336044 a 17.999992,17.999992 164.10085 0 1 1.92053,-0.547046 l 18.91649,-4.269718 a 18.000006,18.000006 170.46051 0 1 1.96931,-0.330944 l 20.09465,-2.239653 a 1.0000002,1.0000002 38.640333 0 1 1.10462,0.883077 l 0.31952,2.866809 a 1.1176473,1.1176473 41.820164 0 0 1.11077,0.993846 h 18.85294 a 1,1 45 0 1 1,1 v 7.525002 a 1,1 45 0 0 1,1 h 17.05 a 1,1 45 0 1 1,1 V 101.0115 a 1,1 135 0 1 -1,1 h -21.05 a 1,1 45 0 1 -1,-1 v -7.524505 a 1,1 45 0 0 -1,-1 h -17.05 a 1,1 45 0 1 -1,-1 v -2.455292 a 0.86666672,0.86666672 40.914385 0 0 -0.98985,-0.857868 l -14.44873,2.074689 a 14.000044,14.000044 167.74317 0 0 -1.94945,0.42351 l -1.98525,0.582125 a 0.95375021,0.95375021 117.30149 0 0 -0.63313,1.226586 l 5.43602,15.738635 a 0.99999959,0.99999959 115.94543 0 1 -0.61874,1.27168 l -17.84973,6.16517 a 12.000001,12.000001 156.1818 0 0 -1.82334,0.80488 l -14.6775,7.9964 a 11.999972,11.999972 146.65451 0 0 -1.66497,1.09557 l -14.85901,11.65479 a 1.0000002,1.0000002 6.890851 0 1 -1.404,-0.16968 l -11.15621,-14.22335 a 2.0551772,2.0551772 25.9444 0 0 -1.61716,-0.7868 l -26.01645,9.2e-4 a 2.0553636,2.0553636 154.05355 0 0 -1.61716,0.78688 l -11.15621,14.22335 a 1.0000002,1.0000002 173.10915 0 1 -1.404,0.16968 l -14.85901,-11.65479 a 11.999972,11.999972 33.34549 0 0 -1.66497,-1.09557 l -14.6775,-7.9964 a 12.000002,12.000002 23.818197 0 0 -1.82334,-0.80488 l -17.849731,-6.16517 a 0.9999998,0.9999998 64.054562 0 1 -0.61874,-1.27168 l 5.43602,-15.738635 A 0.9537504,0.9537504 62.698503 0 0 88.04828,91.255159 l -1.985256,-0.582125 a 14.000049,14.000049 12.256835 0 0 -1.949445,-0.42351 L 69.664851,88.174835 a 0.86666668,0.86666668 139.08562 0 0 -0.989848,0.857868 v 2.455292 a 1,1 135 0 1 -1,1 H 50.625001 a 1,1 135 0 0 -1,1 l 0,7.524505 a 1,1 135 0 1 -1,1 h -21.05 a 1,1 45 0 1 -1,-1 V 41.862503 a 1,1 135 0 1 1,-1 h 17.049997 a 1,1 135 0 0 1,-1 v -7.525002 a 1,1 135 0 1 1,-1 l 18.852942,0 a 1.1176473,1.1176473 138.17984 0 0 1.110769,-0.993846 l 0.319522,-2.866809 a 1.0000002,1.0000002 141.35967 0 1 1.104615,-0.883077 l 20.094657,2.239653 a 18.000008,18.000008 9.5394899 0 1 1.969306,0.330944 l 18.916491,4.269718 a 17.99999,17.99999 15.89915 0 1 1.92053,0.547046 l 18.31913,6.336044 a 17.999999,17.999999 22.258813 0 1 1.84812,0.756415 l 19.36698,9.212135 a 4.4303803,4.4303803 12.719313 0 0 1.90305,0.429544 l 19.14424,-6e-6 a 4.4303862,4.4303862 167.28067 0 0 1.90305,-0.429544 z"
       id="path2"
       sodipodi:nodetypes="ccccccccccccccccccccccccccccccccccccccccccc"
       inkscape:path-effect="#path-effect4"
       inkscape:original-d="m 172.49535,50.715262 21.17517,-10.072217 20.20927,-6.989786 20.86741,-4.710068 22.08235,-2.461191 0.54106,4.854501 h 20.85294 v 9.525002 h 19.05 V 102.0115 h -23.05 v -9.524505 h -19.05 v -4.455292 l -16.42843,2.358953 -3.90445,1.144881 6.08896,17.629053 -19.74015,6.81811 -16.43376,8.95322 -16.43269,12.88911 -12.39053,-15.79703 -28.01645,10e-4 -12.39053,15.79703 -16.43269,-12.88911 -16.43376,-8.95322 -19.740149,-6.81811 6.088956,-17.629053 -3.90445,-1.144881 -16.428424,-2.358953 v 4.455292 H 49.625001 v 9.524505 h -23.05 V 40.862503 H 45.624998 V 31.337501 H 66.47794 L 67.019,26.483 l 22.082349,2.461191 20.867411,4.710068 20.20927,6.989786 21.17308,10.071223 z" />
    <path
       style="fill:none;stroke:#ff0000;stroke-width:0.1;stroke-opacity:1"
       d="m 193.85731,38.4626 18.52916,-6.408691 a 17.999973,17.999973 164.10084 0 1 1.92053,-0.547046 l 19.13329,-4.318654 a 17.99999,17.99999 170.46051 0 1 1.96931,-0.330944 l 22.19275,-2.473496 a 0.99999831,0.99999831 38.64039 0 1 1.10462,0.883077 l 0.34283,3.07604 a 1.1176451,1.1176451 41.820219 0 0 1.11077,0.993846 l 19.06348,0 a 1,1 45 0 1 1,1 v 7.525 a 1,1 45 0 0 1,1 h 17.05 a 1,1 45 0 1 1,1 l 0,63.150008 a 1,1 135 0 1 -1,1 h -25.05 a 1,1 45 0 1 -1,-1 v -7.524514 a 1,1 45 0 0 -1,-1 h -17.05 a 1,1 45 0 1 -1,-1 v -2.147601 a 0.86666665,0.86666665 40.914383 0 0 -0.98985,-0.857868 l -12.02306,1.726389 a 14.000028,14.000028 167.74316 0 0 -1.94945,0.42351 0.87638867,0.87638867 111.70308 0 0 -0.46904,1.178472 l 5.40435,15.646952 a 0.99999986,0.99999986 115.94543 0 1 -0.61874,1.27168 l -19.58256,6.76368 a 11.999961,11.999961 156.18178 0 0 -1.82334,0.80488 l -14.38482,7.83696 a 12.000039,12.000039 146.6545 0 0 -1.66497,1.09557 l -16.30155,12.78625 a 1.0000003,1.0000003 6.8908639 0 1 -1.404,-0.16968 l -11.78999,-15.03138 a 2.0551928,2.0551928 25.944582 0 0 -1.61716,-0.78681 l -24.07069,7.1e-4 a 2.0553471,2.0553471 154.05373 0 0 -1.61716,0.78687 l -11.78999,15.03138 a 1.0000003,1.0000003 173.10914 0 1 -1.404,0.16968 l -16.30155,-12.78625 a 12.000039,12.000039 33.345502 0 0 -1.66497,-1.09557 l -14.38482,-7.83696 a 11.999954,11.999954 23.818216 0 0 -1.82334,-0.80488 l -19.582568,-6.76368 a 0.99999986,0.99999986 64.05456 0 1 -0.61874,-1.27168 L 86.106395,93.810896 A 0.95375054,0.95375054 62.698504 0 0 85.473266,92.58431 12.803388,12.803388 11.87424 0 0 83.687904,92.208914 L 71.664847,90.482525 a 0.86666659,0.86666659 139.08562 0 0 -0.989848,0.857868 v 2.147601 a 1,1 135 0 1 -1,1 l -17.05,0 a 1,1 135 0 0 -1,1 v 7.524516 a 1,1 135 0 1 -1,1 H 25.574998 a 1,1 45 0 1 -1,-1 l 0,-63.15001 a 1,1 135 0 1 1,-1 l 17.050002,0 a 1,1 135 0 0 1,-1 v -7.525 a 1,1 135 0 1 1,-1 h 19.063476 a 1.1176467,1.1176467 138.17982 0 0 1.110769,-0.993846 l 0.342839,-3.07604 a 0.99999965,0.99999965 141.35965 0 1 1.104615,-0.883077 l 22.192753,2.473496 a 17.999997,17.999997 9.5394905 0 1 1.969306,0.330944 l 19.133292,4.318654 a 17.99997,17.99997 15.899157 0 1 1.92053,0.547046 l 18.52916,6.408691 a 18.000025,18.000025 22.258818 0 1 1.84812,0.756415 l 19.05908,9.065679 a 4.43038,4.43038 12.719313 0 0 1.90305,0.429544 l 18.24347,-6e-6 a 4.4303858,4.4303858 167.28067 0 0 1.90305,-0.429544 l 19.06068,-9.066441 a 18.000019,18.000019 157.74118 0 1 1.84812,-0.756415 z"
       id="path45"
       sodipodi:nodetypes="ccccccccccccccccccccccccccccccccccccccccccc"
       inkscape:path-effect="#path-effect1"
       inkscape:original-d="m 192.91224,38.789471 20.4193,-7.062433 21.08421,-4.759004 24.18045,-2.695034 0.56437,5.063732 h 21.06348 v 9.525 h 19.05 v 65.150008 h -27.05 v -9.524514 h -19.05 v -4.147601 l -14.00276,2.010653 -1.75511,0.514642 6.05729,17.53737 -21.47298,7.41662 -16.14108,8.79378 -17.87523,14.02057 -13.02431,-16.60506 -26.07069,7.7e-4 -13.02431,16.60506 -17.87523,-14.02057 -16.14108,-8.79378 -21.472986,-7.41662 6.057289,-17.537372 -1.755111,-0.514642 -14.002753,-2.010653 v 4.147601 h -19.05 v 9.524516 H 24.574998 V 38.8625 H 43.625 v -9.525 h 21.063476 l 0.564377,-5.063732 24.180445,2.695034 21.084212,4.759004 20.4193,7.062433 20.86518,9.924767 20.24347,-6e-6 z" />
  </g>
  <g
     inkscape:groupmode="layer"
     id="layer5"
     inkscape:label="Plate"
     style="display:inline"
     inkscape:highlight-color="#00ff00">
    <rect
       style="display:inline;fill:none;fill-opacity:0.5;stroke:#00ff00;stroke-width:0.1;stroke-opacity:1"
       id="rect1"
       width="14"
       height="14"
       x="31.1"
       y="45.387501"
       rx="0.30000001"
       ry="0.30000001" />
    <rect
       style="display:inline;fill:none;fill-opacity:0.5;stroke:#00ff00;stroke-width:0.1;stroke-opacity:1"
       id="rect2"
       width="14"
       height="14"
       x="50.150002"
       y="35.862499"
       rx="0.30000001"
       ry="0.30000001" />
    <rect
       style="display:inline;fill:none;fill-opacity:0.5;stroke:#00ff00;stroke-width:0.1;stroke-opacity:1"
       id="rect3"
       width="14"
       height="14"
       x="74.065262"
       y="23.420902"
       rx="0.30000001"
       ry="0.30000001"
       transform="rotate(6.36)" />
    <rect
       style="display:inline;fill:none;fill-opacity:0.5;stroke:#00ff00;stroke-width:0.1;stroke-opacity:1"
       id="rect4"
       width="14"
       height="14"
       x="96.982239"
       y="13.141009"
       rx="0.30000001"
       ry="0.30000001"
       transform="rotate(12.71932)" />
    <rect
       style="display:inline;fill:none;fill-opacity:0.5;stroke:#00ff00;stroke-width:0.1;stroke-opacity:1"
       id="rect5"
       width="14"
       height="14"
       x="118.6204"
       y="0.3849712"
       rx="0.30000001"
       ry="0.30000001"
       transform="rotate(19.078981)" />
    <rect
       style="display:inline;fill:none;fill-opacity:0.5;stroke:#00ff00;stroke-width:0.1;stroke-opacity:1"
       id="rect6"
       width="14"
       height="14"
       x="138.71169"
       y="-14.688791"
       rx="0.30000001"
       ry="0.30000001"
       transform="rotate(25.438642)" />
    <rect
       style="display:inline;fill:none;fill-opacity:0.5;stroke:#00ff00;stroke-width:0.1;stroke-opacity:1"
       id="rect7"
       width="14"
       height="14"
       x="139.7397"
       y="124.41911"
       rx="0.30000001"
       ry="0.30000001"
       transform="rotate(-25.438642)" />
    <rect
       style="display:inline;fill:none;fill-opacity:0.5;stroke:#00ff00;stroke-width:0.1;stroke-opacity:1"
       id="rect8"
       width="14"
       height="14"
       x="173.44011"
       y="106.24236"
       rx="0.30000001"
       ry="0.30000001"
       transform="rotate(-19.078981)" />
    <rect
       style="display:inline;fill:none;fill-opacity:0.5;stroke:#00ff00;stroke-width:0.1;stroke-opacity:1"
       id="rect9"
       width="14"
       height="14"
       x="204.92041"
       y="84.444687"
       rx="0.30000001"
       ry="0.30000001"
       transform="rotate(-12.71932)" />
    <rect
       style="display:inline;fill:none;fill-opacity:0.5;stroke:#00ff00;stroke-width:0.1;stroke-opacity:1"
       id="rect10"
       width="14"
       height="14"
       x="233.79247"
       y="59.294052"
       rx="0.30000001"
       ry="0.30000001"
       transform="rotate(-6.3596603)" />
    <rect
       style="display:inline;fill:none;fill-opacity:0.5;stroke:#00ff00;stroke-width:0.1;stroke-opacity:1"
       id="rect11"
       width="14"
       height="14"
       x="259.70001"
       y="35.862499"
       rx="0.30000001"
       ry="0.30000001" />
    <rect
       style="display:inline;fill:none;fill-opacity:0.5;stroke:#00ff00;stroke-width:0.1;stroke-opacity:1"
       id="rect12"
       width="14"
       height="14"
       x="278.75"
       y="45.387501"
       rx="0.30000001"
       ry="0.30000001" />
    <rect
       style="display:inline;fill:none;fill-opacity:0.5;stroke:#00ff00;stroke-width:0.1;stroke-opacity:1"
       id="rect13"
       width="14"
       height="14"
       x="31.1"
       y="64.438004"
       rx="0.30000001"
       ry="0.30000001" />
    <rect
       style="display:inline;fill:none;fill-opacity:0.5;stroke:#00ff00;stroke-width:0.1;stroke-opacity:1"
       id="rect14"
       width="14"
       height="14"
       x="50.150002"
       y="54.912998"
       rx="0.30000001"
       ry="0.30000001" />
    <rect
       style="display:inline;fill:none;fill-opacity:0.5;stroke:#00ff00;stroke-width:0.1;stroke-opacity:1"
       id="rect15"
       width="14"
       height="14"
       x="76.9832"
       y="41.329166"
       rx="0.30000001"
       ry="0.30000001"
       transform="rotate(7.1526687)" />
    <rect
       style="display:inline;fill:none;fill-opacity:0.5;stroke:#00ff00;stroke-width:0.1;stroke-opacity:1"
       id="rect16"
       width="14"
       height="14"
       x="102.50912"
       y="29.236052"
       rx="0.30000001"
       ry="0.30000001"
       transform="rotate(14.305337)" />
    <rect
       style="display:inline;fill:none;fill-opacity:0.5;stroke:#00ff00;stroke-width:0.1;stroke-opacity:1"
       id="rect17"
       width="14"
       height="14"
       x="126.33041"
       y="14.058852"
       rx="0.30000001"
       ry="0.30000001"
       transform="rotate(21.458005)" />
    <rect
       style="display:inline;fill:none;fill-opacity:0.5;stroke:#00ff00;stroke-width:0.1;stroke-opacity:1"
       id="rect18"
       width="14"
       height="14"
       x="148.07718"
       y="-3.9671714"
       rx="0.30000001"
       ry="0.30000001"
       transform="rotate(28.610675)" />
    <rect
       style="display:inline;fill:none;fill-opacity:0.5;stroke:#00ff00;stroke-width:0.1;stroke-opacity:1"
       id="rect19"
       width="14"
       height="14"
       x="122.22872"
       y="151.11015"
       rx="0.30000001"
       ry="0.30000001"
       transform="rotate(-28.610675)" />
    <rect
       style="display:inline;fill:none;fill-opacity:0.5;stroke:#00ff00;stroke-width:0.1;stroke-opacity:1"
       id="rect20"
       width="14"
       height="14"
       x="161.07199"
       y="132.52931"
       rx="0.30000001"
       ry="0.30000001"
       transform="rotate(-21.458005)" />
    <rect
       style="display:inline;fill:none;fill-opacity:0.5;stroke:#00ff00;stroke-width:0.1;stroke-opacity:1"
       id="rect21"
       width="14"
       height="14"
       x="197.29921"
       y="109.25578"
       rx="0.30000001"
       ry="0.30000001"
       transform="rotate(-14.305337)" />
    <rect
       style="display:inline;fill:none;fill-opacity:0.5;stroke:#00ff00;stroke-width:0.1;stroke-opacity:1"
       id="rect22"
       width="14"
       height="14"
       x="230.34656"
       y="81.652901"
       rx="0.30000001"
       ry="0.30000001"
       transform="rotate(-7.1526687)" />
    <rect
       style="display:inline;fill:none;fill-opacity:0.5;stroke:#00ff00;stroke-width:0.1;stroke-opacity:1"
       id="rect23"
       width="14"
       height="14"
       x="259.70001"
       y="54.912998"
       rx="0.30000001"
       ry="0.30000001" />
    <rect
       style="display:inline;fill:none;fill-opacity:0.5;stroke:#00ff00;stroke-width:0.1;stroke-opacity:1"
       id="rect24"
       width="14"
       height="14"
       x="278.75"
       y="64.4375"
       rx="0.30000001"
       ry="0.30000001" />
    <rect
       style="display:inline;fill:none;fill-opacity:0.5;stroke:#00ff00;stroke-width:0.1;stroke-opacity:1"
       id="rect25"
       width="14"
       height="14"
       x="31.1"
       y="83.487503"
       rx="0.30000001"
       ry="0.30000001" />
    <rect
       style="display:inline;fill:none;fill-opacity:0.5;stroke:#00ff00;stroke-width:0.1;stroke-opacity:1"
       id="rect26"
       width="14"
       height="14"
       x="50.150002"
       y="73.962997"
       rx="0.30000001"
       ry="0.30000001" />
    <rect
       style="display:inline;fill:none;fill-opacity:0.5;stroke:#00ff00;stroke-width:0.1;stroke-opacity:1"
       id="rect27"
       width="14"
       height="14"
       x="80.707253"
       y="58.853058"
       rx="0.30000001"
       ry="0.30000001"
       transform="rotate(8.1712337)" />
    <rect
       style="display:inline;fill:none;fill-opacity:0.5;stroke:#00ff00;stroke-width:0.1;stroke-opacity:1"
       id="rect28"
       width="14"
       height="14"
       x="109.48409"
       y="44.26833"
       rx="0.30000001"
       ry="0.30000001"
       transform="rotate(16.342467)" />
    <rect
       style="display:inline;fill:none;fill-opacity:0.5;stroke:#00ff00;stroke-width:0.1;stroke-opacity:1"
       id="rect29"
       width="14"
       height="14"
       x="135.89467"
       y="25.740629"
       rx="0.30000001"
       ry="0.30000001"
       transform="rotate(24.513701)" />
    <rect
       style="display:inline;fill:none;fill-opacity:0.5;stroke:#00ff00;stroke-width:0.1;stroke-opacity:1"
       id="rect30"
       width="14"
       height="14"
       x="159.40494"
       y="3.6481171"
       rx="0.30000001"
       ry="0.30000001"
       transform="rotate(32.684934)" />
    <rect
       style="display:inline;fill:none;fill-opacity:0.5;stroke:#00ff00;stroke-width:0.1;stroke-opacity:1"
       id="rect31"
       width="14"
       height="14"
       x="99.164322"
       y="178.53328"
       rx="0.30000001"
       ry="0.30000001"
       transform="rotate(-32.684934)" />
    <rect
       style="display:inline;fill:none;fill-opacity:0.5;stroke:#00ff00;stroke-width:0.1;stroke-opacity:1"
       id="rect32"
       width="14"
       height="14"
       x="144.76398"
       y="160.10991"
       rx="0.30000001"
       ry="0.30000001"
       transform="rotate(-24.513701)" />
    <rect
       style="display:inline;fill:none;fill-opacity:0.5;stroke:#00ff00;stroke-width:0.1;stroke-opacity:1"
       id="rect33"
       width="14"
       height="14"
       x="187.28152"
       y="135.3922"
       rx="0.30000001"
       ry="0.30000001"
       transform="rotate(-16.342467)" />
    <rect
       style="display:inline;fill:none;fill-opacity:0.5;stroke:#00ff00;stroke-width:0.1;stroke-opacity:1"
       id="rect34"
       width="14"
       height="14"
       x="225.85493"
       y="104.8825"
       rx="0.30000001"
       ry="0.30000001"
       transform="rotate(-8.1712337)" />
    <rect
       style="display:inline;fill:none;fill-opacity:0.5;stroke:#00ff00;stroke-width:0.1;stroke-opacity:1"
       id="rect35"
       width="14"
       height="14"
       x="259.70001"
       y="73.962502"
       rx="0.30000001"
       ry="0.30000001" />
    <rect
       style="display:inline;fill:none;fill-opacity:0.5;stroke:#00ff00;stroke-width:0.1;stroke-opacity:1"
       id="rect36"
       width="14"
       height="14"
       x="278.75"
       y="83.487503"
       rx="0.30000001"
       ry="0.30000001" />
    <rect
       style="display:inline;fill:none;fill-opacity:0.5;stroke:#00ff00;stroke-width:0.1;stroke-opacity:1"
       id="rect37"
       width="14"
       height="14"
       x="118.53976"
       y="57.588772"
       rx="0.30000001"
       ry="0.30000001"
       transform="rotate(19.054567)" />
    <rect
       style="display:inline;fill:none;fill-opacity:0.5;stroke:#00ff00;stroke-width:0.1;stroke-opacity:1"
       id="rect38"
       width="14"
       height="14"
       x="147.99425"
       y="34.210789"
       rx="0.30000001"
       ry="0.30000001"
       transform="rotate(28.58185)" />
    <rect
       style="display:inline;fill:none;fill-opacity:0.5;stroke:#00ff00;stroke-width:0.1;stroke-opacity:1"
       id="rect39"
       width="14"
       height="14"
       x="173.17233"
       y="6.2804694"
       rx="0.30000001"
       ry="0.30000001"
       transform="rotate(38.109134)" />
    <rect
       style="display:inline;fill:none;fill-opacity:0.5;stroke:#00ff00;stroke-width:0.1;stroke-opacity:1"
       id="rect40"
       width="14"
       height="14"
       x="67.644722"
       y="206.14815"
       rx="0.30000001"
       ry="0.30000001"
       transform="rotate(-38.109134)" />
    <rect
       style="display:inline;fill:none;fill-opacity:0.5;stroke:#00ff00;stroke-width:0.1;stroke-opacity:1"
       id="rect41"
       width="14"
       height="14"
       x="122.38964"
       y="189.14507"
       rx="0.30000001"
       ry="0.30000001"
       transform="rotate(-28.58185)"
       inkscape:label="rect41" />
    <rect
       style="display:inline;fill:none;fill-opacity:0.5;stroke:#00ff00;stroke-width:0.1;stroke-opacity:1"
       id="rect42"
       width="14"
       height="14"
       x="173.56587"
       y="163.3156"
       rx="0.30000001"
       ry="0.30000001"
       transform="rotate(-19.054567)" />
    <path
       style="display:inline;fill:none;stroke:#00ff00;stroke-width:0.1;stroke-opacity:1"
       d="m 134.90835,138.61287 -15.58029,-12.22053 a 11.999984,11.999984 33.345492 0 0 -1.66497,-1.09557 l -14.53115,-7.91667 a 12.000019,12.000019 23.81821 0 0 -1.82334,-0.80488 l -18.716141,-6.46443 a 1.0000002,1.0000002 64.054569 0 1 -0.61874,-1.27168 L 87.393902,93.146322 A 0.95375115,0.95375115 62.69852 0 0 86.760773,91.919736 L 84.867869,91.364688 A 12.442677,12.442677 11.747575 0 0 82.916054,90.958796 L 70.667216,89.421687 a 0.88235226,0.88235226 138.57632 0 0 -0.992217,0.875486 l 10e-7,2.190833 a 0.99999902,0.99999902 134.99999 0 1 -0.999999,1 l -17.050002,-5e-6 a 0.99999974,0.99999974 135.00001 0 0 -1,1 v 7.524499 a 1,1 135 0 1 -1,1 l -23.049999,0 a 1,1 45 0 1 -1,-1 l 0,-61.149997 a 1,1 135 0 1 1,-1 h 17.05 a 1,1 135 0 0 1,-1 V 31.3375 a 1,1 135 0 1 1,-1 h 18.958205 a 1.1176469,1.1176469 138.17983 0 0 1.110769,-0.993846 l 0.33118,-2.971423 a 0.99999986,0.99999986 141.35966 0 1 1.104615,-0.883077 l 21.143719,2.356576 a 18.00001,18.00001 9.5394889 0 1 1.969306,0.330944 l 19.024856,4.294177 a 17.999985,17.999985 15.89915 0 1 1.92053,0.547046 l 18.42416,6.372371 a 18.000013,18.000013 22.258811 0 1 1.84812,0.756415 l 19.21418,9.139452 a 4.4301921,4.4301921 12.718786 0 0 1.90305,0.429525 l 18.6939,-3.47e-4 a 4.4305759,4.4305759 167.28015 0 0 1.90305,-0.429563 l 19.21418,-9.139452 a 18.000013,18.000013 157.74119 0 1 1.84812,-0.756415 l 18.42416,-6.372371 a 17.999978,17.999978 164.10085 0 1 1.92053,-0.547046 l 19.02486,-4.294177 a 18.000017,18.000017 170.46051 0 1 1.96931,-0.330944 l 21.14371,-2.356576 a 1.0000003,1.0000003 38.640332 0 1 1.10462,0.883077 l 0.33118,2.971423 a 1.1176474,1.1176474 41.820162 0 0 1.11077,0.993846 l 18.9582,0 a 1,1 45 0 1 1,1 v 7.525003 a 1,1 45 0 0 1,1 h 17.05 a 1,1 45 0 1 1,1 v 61.149992 a 1,1 135 0 1 -1,1 h -23.05 a 1,1 45 0 1 -1,-1 v -7.524494 a 0.99999974,0.99999974 44.999992 0 0 -1,-1 l -17.05,5e-6 a 0.99999974,0.99999974 44.999992 0 1 -1,-1 v -2.190833 a 0.88235287,0.88235287 41.423663 0 0 -0.99222,-0.875486 l -12.24883,1.537109 a 12.442691,12.442691 168.25243 0 0 -1.95182,0.405892 l -1.8929,0.555048 a 0.95375089,0.95375089 117.30148 0 0 -0.63313,1.226586 l 5.42018,15.692783 a 1.0000001,1.0000001 115.94543 0 1 -0.61874,1.27168 l -18.71614,6.46443 a 12.000018,12.000018 156.18179 0 0 -1.82334,0.80488 l -14.53115,7.91667 a 11.999984,11.999984 146.65451 0 0 -1.66497,1.09557 l -15.58029,12.22053 a 1.0000001,1.0000001 6.8908566 0 1 -1.404,-0.16968 l -11.47355,-14.62794 a 2.0551773,2.0551773 25.94441 0 0 -1.61716,-0.7868 l -25.04361,8.8e-4 a 2.0553625,2.0553625 154.05355 0 0 -1.61716,0.78688 l -11.4731,14.62737 a 1,1 173.10914 0 1 -1.404,0.16968 z"
       id="path47"
       sodipodi:nodetypes="ccccccccccccccccccccccccccccccccccccccccccc"
       inkscape:label="path56"
       inkscape:path-effect="#path-effect5"
       inkscape:original-d="m 135.69519,139.23003 -17.15397,-13.45485 -16.28741,-8.87349 -20.606559,-7.11737 6.073119,-17.583206 -3.812098,-1.117804 -14.233274,-1.786137 3e-6,4.190833 -19.050002,-5e-6 V 103.0125 H 25.575 V 39.862503 h 19.05 V 30.3375 h 20.958205 l 0.552718,-4.959115 23.131411,2.578114 20.975776,4.734527 20.3143,7.026113 21.02028,9.99854 20.6939,-3.85e-4 21.02028,-9.99854 20.3143,-7.026113 20.97578,-4.734527 23.13141,-2.578114 0.55272,4.959115 h 20.9582 v 9.525003 h 19.05 v 63.149992 h -25.05 v -9.524494 l -19.05,5e-6 v -4.190833 l -14.23327,1.786137 -3.8121,1.117804 6.07312,17.583201 -20.60656,7.11737 -16.28741,8.87349 -17.15397,13.45485 -12.70787,-16.20162 -27.04361,9.6e-4 z" />
  </g>
</svg>
